# xmcd
#
# Track frame offsets:
# 150
# 17750
# 34119
# 49491
# 65471
# 83134
# 95766
# 107482
# 120979
# 136634
# 155109
# 168870
# 181844
# 196029
# 211563
# 229566
# 245742
# 259825
# 273567
# 288902
#
# Disc length: 4010 seconds
#
#
# Revision: 0
# Processed by: cddbd v1.5.1PL2 Copyright (c) Steve Scherf et al.
# Submitted via: FreeRIP 2.945 
#
DISCID=0c0fa814
DTITLE=Forrozao 2006 - Nao bebo nao fumo e nao fujo
DYEAR=1900
DGENRE=
TTITLE0=Bruno and Marrone - Que pescar que nada
TTITLE1=Guilherme and Santiago - Eu gosto de mulher
TTITLE2=Edson and Hudson - Solte a garganta
TTITLE3=Gino and geno - Bebo pra carai
TTITLE4=Chitaozinho and xororo - Sistema Bruto
TTITLE5=Pedro and Thiago - Vicio dominador
TTITLE6=Ataide and Alexandre - Choradeira
TTITLE7=Zeze di Camargo and Luciano - sou parada dura
TTITLE8=Rio negro and Solimoes - O carro dela quebrou
TTITLE9=Rick and Rener - Bebedeira
TTITLE10=Gilberto and Gilmar - Demoro
TTITLE11=Felipe and Falcao - Nois e simprao de tudo
TTITLE12=Eduardo Costa - Eu de ca, voce de la
TTITLE13=Cezar and Paulinho - Morena ai ai
TTITLE14=Gino and Geno - A mulher e a Bebida
TTITLE15=Chico Rey and Parana - Bomba Relogio
TTITLE16=Daniel - Vou de fusca
TTITLE17=Ataide and Alexandre - Uai so
TTITLE18=Rionegro and Solimoes - Casa, comida,
TTITLE19=Rick and Rener -  Pelejando
EXTD=
EXTT0=
EXTT1=
EXTT2=
EXTT3=
EXTT4=
EXTT5=
EXTT6=
EXTT7=
EXTT8=
EXTT9=
EXTT10=
EXTT11=
EXTT12=
EXTT13=
EXTT14=
EXTT15=
EXTT16=
EXTT17=
EXTT18=
EXTT19=
PLAYORDER=
